Coordinates
version=1
nRows=16
nColumns=22
inDegrees=yes

Units are S.I. units (second, meters, Newtons, ...)
If the header above contains a line with 'inDegrees', this indicates whether rotational values are in degrees (yes) or radians (no).

endheader
time	pelvis_tilt	pelvis_list	pelvis_rotation	pelvis_tx	pelvis_ty	pelvis_tz	hip_flexion_r	hip_adduction_r	hip_rotation_r	knee_angle_r	ankle_angle_r	subtalar_angle_r	hip_flexion_l	hip_adduction_l	hip_rotation_l	knee_angle_l	ankle_angle_l	subtalar_angle_l	lumbar_extension	lumbar_bending	lumbar_rotation
      0.01000000	     -0.96310218	      0.92918029	    178.03320985	      0.09685296	      1.08719122	      1.15291604	     -3.62078945	      2.48171497	      1.94594337	     -7.68440741	     10.90823676	     -0.77802507	     -1.59659405	     -0.11765109	     -2.61300587	    -11.40671879	     12.51834298	     -3.77445971	     -2.16400143	     -1.44523579	     -4.90287060
      0.02000000	     -0.96506881	      0.93006417	    178.03900203	      0.09685471	      1.08719507	      1.15290654	     -3.62215906	      2.48301806	      1.94907020	     -7.68592798	     10.90644309	     -0.77882293	     -1.59683916	     -0.11998432	     -2.60978602	    -11.40774398	     12.51595334	     -3.77456441	     -2.16169778	     -1.44826876	     -4.90141717
      0.03000000	     -0.96861655	      0.93153372	    178.04507337	      0.09685891	      1.08719925	      1.15288880	     -3.62407540	      2.48515102	      1.95136636	     -7.68958279	     10.90665539	     -0.77920424	     -1.59688517	     -0.12319335	     -2.60455421	    -11.41268862	     12.51397280	     -3.77458633	     -2.16159134	     -1.45235436	     -4.89945193
      0.04000000	     -0.98021055	      0.93582746	    178.05861553	      0.09689946	      1.08721017	      1.15288087	     -3.62891738	      2.49021635	      1.94984969	     -7.70106736	     10.91840996	     -0.77791571	     -1.59453466	     -0.12962479	     -2.58146639	    -11.43458788	     12.51186055	     -3.77418380	     -2.17962496	     -1.45365109	     -4.89741001
      0.05000000	     -0.99783603	      0.94161591	    178.08004262	      0.09691148	      1.08722403	      1.15287461	     -3.64003088	      2.49750200	      1.93269762	     -7.71734846	     10.94488245	     -0.76967471	     -1.60185582	     -0.13869763	     -2.55936812	    -11.45230217	     12.52133402	     -3.77332448	     -2.19910474	     -1.45450232	     -4.90888229
      0.06000000	     -1.02150731	      0.94570280	    178.10936714	      0.09689803	      1.08724486	      1.15287452	     -3.66203345	      2.50293662	      1.89411215	     -7.72744770	     10.97033844	     -0.74013589	     -1.62116539	     -0.14595938	     -2.52995961	    -11.46053933	     12.53773623	     -3.76819638	     -2.22224011	     -1.45799812	     -4.93480021
      0.07000000	     -1.02926248	      0.94766287	    178.12353464	      0.09692749	      1.08724848	      1.15284292	     -3.66337386	      2.50751378	      1.89892739	     -7.73935950	     10.97508116	     -0.73473048	     -1.61822335	     -0.15251435	     -2.51761686	    -11.47534947	     12.53630174	     -3.76690215	     -2.23421404	     -1.46708112	     -4.93097239
      0.08000000	     -1.04380830	      0.95431551	    178.15195285	      0.09696073	      1.08725012	      1.15284428	     -3.66710497	      2.51674887	      1.87210251	     -7.76283904	     11.01043108	     -0.70585210	     -1.61591840	     -0.16306046	     -2.48485899	    -11.50255534	     12.55339178	     -3.76122592	     -2.25376351	     -1.46625206	     -4.95412138
      0.09000000	     -1.05026582	      0.95651770	    178.16815002	      0.09702736	      1.08724603	      1.15282560	     -3.66053161	      2.52176239	      1.87589059	     -7.78451482	     11.01444698	     -0.69734932	     -1.60352555	     -0.16908507	     -2.46381321	    -11.52921852	     12.55395110	     -3.75918047	     -2.26934011	     -1.47319368	     -4.95448960
      0.10000000	     -1.05406656	      0.96128964	    178.18869831	      0.09711512	      1.08723173	      1.15281445	     -3.64619696	      2.52990500	      1.87689677	     -7.81432743	     11.02806697	     -0.68922420	     -1.58448519	     -0.17861204	     -2.44081863	    -11.56060566	     12.55972693	     -3.75767459	     -2.28592003	     -1.47675789	     -4.96157740
      0.11000000	     -1.01813779	      0.97750255	    178.23636629	      0.09725241	      1.08714686	      1.15285272	     -3.57479993	      2.55244557	      1.81540656	     -7.86794048	     11.08351683	     -0.65493297	     -1.50470403	     -0.20244039	     -2.39737960	    -11.61629025	     12.60416787	     -3.75334600	     -2.26554827	     -1.46291185	     -5.00808297
      0.12000000	     -0.95731156	      0.98310686	    178.26492422	      0.09740525	      1.08703512	      1.15285687	     -3.46873768	      2.56378718	      1.79393642	     -7.93348180	     11.10462745	     -0.61628766	     -1.39568427	     -0.21553767	     -2.35869403	    -11.67912870	     12.61968755	     -3.74676942	     -2.21637473	     -1.46377779	     -5.03114849
      0.13000000	     -0.96214458	      0.98511028	    178.27820401	      0.09750874	      1.08702308	      1.15285087	     -3.44739763	      2.56784496	      1.81106430	     -7.97557964	     11.10819474	     -0.61311304	     -1.37698639	     -0.22070149	     -2.33985999	    -11.71008377	     12.62051079	     -3.74664940	     -2.24028036	     -1.47017873	     -5.03238816
      0.14000000	     -0.91954601	      0.99273599	    178.30534225	      0.09764156	      1.08692325	      1.15290050	     -3.34834216	      2.57734736	      1.76502541	     -8.06703145	     11.18613676	     -0.58847614	     -1.28917846	     -0.23292705	     -2.31938600	    -11.77055532	     12.66003742	     -3.74877101	     -2.21487436	     -1.46123972	     -5.05261169
      0.15000000	     -0.86075452	      0.98465977	    178.32524465	      0.09776781	      1.08681979	      1.15294992	     -3.23525637	      2.56944776	      1.75171179	     -8.14967564	     11.21410352	     -0.55143063	     -1.18826978	     -0.22632599	     -2.28749627	    -11.82371410	     12.66614623	     -3.74562253	     -2.16996194	     -1.47162218	     -5.06632680
      0.16000000	     -0.86660287	      0.98435324	    178.33613735	      0.09781519	      1.08681754	      1.15298641	     -3.21238614	      2.56758413	      1.77303061	     -8.20134330	     11.21560926	     -0.54779944	     -1.17719550	     -0.22611983	     -2.27327365	    -11.84782862	     12.66712658	     -3.74553476	     -2.19246067	     -1.47535303	     -5.07425696
